<svg width="165" height="52" viewBox="0 0 165 52" fill="none" xmlns="http://www.w3.org/2000/svg">
<path d="M23.2955 43.9516H25.2882C25.3212 43.9513 25.3538 43.9603 25.3825 43.9777C25.4111 43.9952 25.4349 44.0204 25.4513 44.0509C25.4676 44.0814 25.476 44.1159 25.4755 44.151C25.4751 44.186 25.4658 44.2203 25.4486 44.2503L21.5523 51.2738C21.4715 51.4191 21.3563 51.5395 21.2181 51.623C21.08 51.7066 20.9236 51.7504 20.7645 51.75C20.6086 51.75 20.4553 51.7075 20.3193 51.6268C20.1832 51.5461 20.069 51.4297 19.9874 51.2889L15.2355 43.0936C15.0673 42.8362 14.8119 42.6574 14.5226 42.5946C14.4835 42.5891 14.444 42.5891 14.4049 42.5946L11.1218 42.5492C9.62884 42.5346 8.1613 42.1378 6.84407 41.3925C5.15608 40.4363 3.68714 39.098 2.54139 37.4725C1.45258 35.8648 0.864349 33.9366 0.858817 31.9573C0.805346 27.0658 0.66632 14.7917 0.619978 10.5844C0.60617 9.53424 0.833742 8.49631 1.28302 7.56031C2.38097 5.29223 4.64104 1.80317 8.41257 0.468782C9.03385 0.252168 9.68354 0.141172 10.3375 0.13991L30.532 4.54776e-05C30.7927 -0.00122416 31.0529 0.0240932 31.3091 0.0756481C32.9204 0.396959 38.4386 1.91657 40.2887 7.7909C40.6056 8.83372 40.7633 9.92354 40.7557 11.0191V32.6755C40.7557 32.6755 40.6024 38.9392 33.8044 41.9293C32.9671 42.2861 32.0758 42.4795 31.1736 42.5001L22.0407 42.7458C21.5815 42.7569 21.1292 42.6256 20.7395 42.3678C20.3715 42.1376 20.0598 41.8189 19.8294 41.4374C19.599 41.0559 19.4566 40.6222 19.4134 40.1715L19.3101 33.5676L16.2194 33.4013C16.2194 33.4013 14.0449 32.6188 13.6243 30.6569C13.6258 30.6355 13.6258 30.614 13.6243 30.5927L7.92063 16.6629C7.90983 16.6417 7.9026 16.6186 7.89924 16.5948C7.8529 16.3794 7.50711 15.1659 8.07391 14.0962C8.11855 13.9946 8.19555 13.9129 8.29136 13.8656L12.5691 12.0587C12.8507 11.9339 13.3248 11.9377 13.4745 11.6807C13.663 11.4072 13.896 11.1716 14.1625 10.9851L16.7826 9.09504C16.8139 9.07417 16.8494 9.06129 16.8862 9.05742C16.9229 9.05354 16.9601 9.05876 16.9946 9.07269C17.0292 9.08661 17.0602 9.10885 17.0853 9.13766C17.1104 9.16646 17.1288 9.20105 17.1391 9.23869L18.3797 14.1944C18.3977 14.2672 18.3997 14.3434 18.3855 14.4172C18.3714 14.4909 18.3415 14.5602 18.2981 14.6197C18.2547 14.6793 18.199 14.7274 18.1352 14.7605C18.0715 14.7936 18.0015 14.8108 17.9305 14.8106H14.134C14.1067 14.8113 14.0797 14.8047 14.0555 14.7915C14.0312 14.7783 14.0104 14.7589 13.995 14.735C13.8881 14.5725 13.6385 14.202 13.6991 14.2209C13.7597 14.2398 11.7171 14.924 11.0826 15.1206C10.9136 15.1759 10.77 15.2958 10.6798 15.457C10.594 15.6165 10.5529 15.7986 10.5611 15.982C10.5693 16.1654 10.6265 16.3426 10.7261 16.4928C10.776 16.5873 10.8259 16.678 10.8651 16.7725L15.92 29.2053C15.92 29.2053 16.9395 30.8988 18.1194 30.8232L23.7161 30.8006C24.1383 30.6943 24.527 30.4731 24.844 30.1589C25.1609 29.8447 25.3951 29.4483 25.5235 29.0088L30.5854 17.1165C30.6565 16.9485 30.7034 16.7701 30.7245 16.5873C30.7708 16.1336 30.7886 15.3058 30.2646 15.1735L27.8156 14.3078C27.7645 14.2902 27.7089 14.2936 27.66 14.3174C27.6111 14.3412 27.5725 14.3837 27.5518 14.4364L27.4805 14.6178C27.449 14.7009 27.3941 14.7716 27.3233 14.8203C27.2525 14.869 27.1692 14.8933 27.0848 14.89L23.4595 14.7426C23.3904 14.7395 23.3228 14.7207 23.2613 14.6875C23.1997 14.6542 23.1456 14.6073 23.1026 14.55C23.0597 14.4926 23.0289 14.4261 23.0123 14.3549C22.9958 14.2838 22.9939 14.2097 23.0067 14.1377L24.0227 9.25759C24.0345 9.20014 24.0575 9.14593 24.0901 9.09841C24.1228 9.05089 24.1644 9.0111 24.2124 8.98158C24.2603 8.95207 24.3136 8.93347 24.3687 8.92697C24.4238 8.92047 24.4796 8.92621 24.5325 8.94384C24.6316 8.98304 24.7233 9.04064 24.8034 9.11394L28.2897 11.2006C28.3387 11.231 28.3755 11.2794 28.3931 11.3367L28.4787 11.658C28.4881 11.6903 28.5041 11.7199 28.5257 11.7448C28.5473 11.7696 28.5739 11.789 28.6034 11.8016L31.0988 12.8412C31.0988 12.8412 34.6136 13.7748 33.1342 17.5285L27.6053 31.0954C27.6053 31.0954 26.7961 33.3635 24.5717 33.5223L22.1654 33.5487L22.03 39.045C22.0257 39.1962 22.0559 39.3463 22.118 39.4825C22.18 39.6187 22.2721 39.7371 22.3865 39.8275C22.9818 40.2849 22.8748 40.2811 23.4951 40.3719C23.6982 40.4021 23.9031 40.4173 24.1082 40.4172L30.4001 40.3945C30.788 40.3942 31.1741 40.3382 31.5479 40.2282C33.0736 39.7708 36.8951 38.2361 38.1214 34.0439C38.296 33.431 38.3849 32.7942 38.3852 32.1538L38.6989 11.28C38.6989 11.28 38.6561 5.17883 31.9258 2.55163C31.4033 2.35891 30.8534 2.263 30.3003 2.26812L11.407 2.24544C10.9126 2.24389 10.4197 2.30352 9.93829 2.42311C8.32855 2.81412 6.84263 3.64302 5.62685 4.82817C4.41108 6.01333 3.5074 7.51386 3.00481 9.18199C2.93063 9.42615 2.89451 9.68151 2.89787 9.93801C2.91569 12.9054 3.03333 31.9724 3.03333 31.9724C3.03333 31.9724 3.09036 37.3818 9.25742 39.8086C10.1056 40.1361 11.0036 40.2937 11.906 40.2736L15.3888 40.2169C15.7635 40.2823 16.1197 40.4353 16.4317 40.6648C16.7436 40.8943 17.0036 41.1945 17.1926 41.5437L20.6148 47.8263C20.6346 47.8626 20.6632 47.8927 20.6977 47.9133C20.7322 47.9339 20.7713 47.9443 20.8108 47.9435H20.9392C20.9796 47.9445 21.0195 47.9333 21.0542 47.9112C21.0889 47.8891 21.117 47.857 21.1352 47.8187L22.9176 44.2011C22.955 44.1286 23.0094 44.0675 23.0756 44.0237C23.1418 43.98 23.2176 43.9552 23.2955 43.9516Z" fill="#0D47A1"/>
<path d="M24.3329 22.3861C24.9472 22.3861 25.4451 21.8581 25.4451 21.2067C25.4451 20.5554 24.9472 20.0273 24.3329 20.0273C23.7187 20.0273 23.2207 20.5554 23.2207 21.2067C23.2207 21.8581 23.7187 22.3861 24.3329 22.3861Z" fill="#2196F3"/>
<path d="M20.6897 22.6088C21.304 22.6088 21.8019 22.0808 21.8019 21.4294C21.8019 20.778 21.304 20.25 20.6897 20.25C20.0755 20.25 19.5775 20.778 19.5775 21.4294C19.5775 22.0808 20.0755 22.6088 20.6897 22.6088Z" fill="#2196F3"/>
<path d="M17.0786 22.3861C17.6929 22.3861 18.1908 21.8581 18.1908 21.2067C18.1908 20.5554 17.6929 20.0273 17.0786 20.0273C16.4644 20.0273 15.9664 20.5554 15.9664 21.2067C15.9664 21.8581 16.4644 22.3861 17.0786 22.3861Z" fill="#2196F3"/>
<path d="M59.9415 9.33301V23.0587H56.9899L51.1187 14.8558V23.0587H47.9639V9.33301H50.9333L56.8223 17.5926V9.33301H59.9415Z" fill="#0D47A1"/>
<path d="M73.1418 9.33301V12.1908H66.3117V14.7424H72.4751V17.5813L66.3117 17.6002V20.1858H73.3414V23.0587H62.9323V9.33301H73.1418Z" fill="#0D47A1"/>
<path d="M84.4742 20.6282H78.881L77.9756 23.0588H74.5071L80.061 9.33691H83.5331L88.9587 23.0588H85.3618L84.4742 20.6282ZM83.4796 17.8876L81.6972 12.9734L79.8899 17.8876H83.4796Z" fill="#0D47A1"/>
<path d="M98.3553 23.0587L96.4731 19.2596H93.9778V23.0587H90.5984V9.33301H96.4125C98.1236 9.33301 99.4497 9.75386 100.391 10.5956C101.332 11.4373 101.807 12.6217 101.817 14.1489C101.838 15.0788 101.635 15.999 101.225 16.8214C100.829 17.5729 100.231 18.1822 99.5067 18.5716L102.177 23.0587H98.3553ZM93.9635 16.3981H96.4197C96.9984 16.4376 97.5695 16.2416 98.0167 15.85C98.2115 15.6438 98.3623 15.3958 98.4588 15.1225C98.5554 14.8493 98.5955 14.5572 98.5763 14.2661C98.5935 13.982 98.5523 13.6973 98.4557 13.4317C98.359 13.1661 98.2093 12.9259 98.0167 12.7276C97.5664 12.343 96.9966 12.1515 96.4197 12.1908H93.9635V16.3981Z" fill="#0D47A1"/>
<path d="M113.787 11.2761C113.166 10.986 112.495 10.8354 111.816 10.8338C110.925 10.827 110.048 11.0709 109.274 11.5407C108.513 12.003 107.88 12.6714 107.442 13.4777C107.003 14.2839 106.775 15.1991 106.779 16.1298C106.774 17.0601 107.007 17.9746 107.453 18.7759C107.899 19.5851 108.538 20.2557 109.305 20.7201C110.073 21.1846 110.943 21.4266 111.827 21.422C112.501 21.4217 113.169 21.2777 113.791 20.9986C114.422 20.7244 114.999 20.3268 115.491 19.8267L116.357 20.8209C115.734 21.4452 115.01 21.9447 114.219 22.2952C112.79 22.9378 111.19 23.0096 109.715 22.4974C108.241 21.9851 106.991 20.9235 106.198 19.5092C105.626 18.4869 105.329 17.3183 105.339 16.1298C105.33 14.9482 105.631 13.7873 106.209 12.7768C106.778 11.7668 107.586 10.9326 108.554 10.3575C109.785 9.62727 111.205 9.33423 112.604 9.52129C114.004 9.70835 115.311 10.3657 116.332 11.397L115.48 12.4744C114.992 11.9653 114.418 11.5587 113.787 11.2761Z" fill="#444444"/>
<path d="M120.753 9.5791V21.3277H126.189V22.7188H119.327V9.5791H120.753Z" fill="#444444"/>
<path d="M130.349 9.5791V22.7188H128.923V9.5791H130.349Z" fill="#444444"/>
<path d="M144.847 9.5791V22.7188H143.393L135.96 12.0173V22.7188H134.534V9.5791H136.003L143.435 20.2769V9.5791H144.847Z" fill="#444444"/>
<path d="M150.476 9.5791V22.7188H149.05V9.5791H150.476Z" fill="#444444"/>
<path d="M161.954 11.2759C161.328 10.9838 160.65 10.8332 159.965 10.8337C159.075 10.8268 158.199 11.0708 157.427 11.5406C156.666 12.0029 156.033 12.6713 155.595 13.4775C155.156 14.2838 154.928 15.199 154.932 16.1296C154.927 17.06 155.16 17.9745 155.606 18.7757C156.051 19.5844 156.69 20.2546 157.457 20.719C158.224 21.1835 159.093 21.4258 159.976 21.4218C160.652 21.422 161.321 21.278 161.944 20.9984C162.573 20.7233 163.149 20.3258 163.641 19.8266L164.51 20.8208C163.888 21.4456 163.163 21.9451 162.372 22.295C161.591 22.6486 160.75 22.8312 159.901 22.8318C158.776 22.8401 157.669 22.5323 156.693 21.9397C155.728 21.3618 154.925 20.5232 154.365 19.5091C153.793 18.4868 153.496 17.3181 153.506 16.1296C153.497 14.9486 153.797 13.7881 154.372 12.7767C154.942 11.7675 155.751 10.9336 156.718 10.3574C157.949 9.62624 159.37 9.3327 160.77 9.51978C162.17 9.70685 163.478 10.3647 164.5 11.3969L163.644 12.4742C163.157 11.9661 162.583 11.5596 161.954 11.2759Z" fill="#444444"/>
<path d="M54.6049 36.5466C54.6667 36.7584 54.6667 36.985 54.6049 37.1968C54.5906 37.2321 54.5658 37.2615 54.5343 37.2806C54.5028 37.2997 54.4663 37.3074 54.4303 37.3026H54.2663C53.9012 37.3154 53.5374 37.2499 53.1969 37.1098C52.9318 36.9917 52.7129 36.7809 52.5766 36.5126C52.3074 36.6466 52.0254 36.7493 51.7353 36.8187C51.453 36.8925 51.1634 36.9306 50.8726 36.9321C50.3745 36.939 49.8832 36.8088 49.4467 36.5541C49.0276 36.3157 48.6758 35.9635 48.4272 35.5335C48.1802 35.1092 48.0493 34.6203 48.0493 34.1216C48.0493 33.6229 48.1802 33.1341 48.4272 32.7097C48.6825 32.2864 49.0376 31.941 49.4574 31.708C49.8939 31.4534 50.3852 31.3231 50.8833 31.33H52.3449V31.0276H53.2004V35.1857C53.1931 35.4324 53.2232 35.6787 53.2895 35.9153C53.3183 35.9985 53.3624 36.0749 53.4193 36.1398C53.4763 36.2047 53.5448 36.2569 53.6211 36.2933C53.8482 36.3856 54.091 36.4268 54.334 36.4143H54.4481C54.4842 36.4155 54.519 36.429 54.5472 36.4528C54.5755 36.4767 54.5957 36.5095 54.6049 36.5466ZM52.352 35.6469C52.3378 35.4781 52.3306 35.3344 52.3306 35.216V32.1919H50.8833C50.5383 32.1877 50.1977 32.2748 49.8923 32.4451C49.6012 32.6082 49.3554 32.8493 49.1794 33.1445C49.0101 33.4402 48.9205 33.7795 48.9205 34.1254C48.9205 34.4713 49.0101 34.8106 49.1794 35.1063C49.3554 35.4015 49.6012 35.6426 49.8923 35.8057C50.2012 35.977 50.5455 36.064 50.894 36.0589C51.4037 36.0439 51.9029 35.9028 52.352 35.6469ZM49.8139 30.3547C49.7139 30.2396 49.6602 30.0878 49.6642 29.9313C49.6615 29.8544 49.6734 29.7776 49.6991 29.7055C49.7248 29.6335 49.7638 29.5676 49.8139 29.5117C49.9157 29.4071 50.0518 29.3486 50.1935 29.3486C50.3353 29.3486 50.4714 29.4071 50.5732 29.5117C50.6232 29.5676 50.6623 29.6335 50.688 29.7055C50.7137 29.7776 50.7256 29.8544 50.7229 29.9313C50.7269 30.0878 50.6732 30.2396 50.5732 30.3547C50.5237 30.4083 50.4647 30.4509 50.3995 30.48C50.3343 30.5091 50.2643 30.524 50.1935 30.524C50.1228 30.524 50.0528 30.5091 49.9876 30.48C49.9224 30.4509 49.8634 30.4083 49.8139 30.3547ZM51.2113 30.3547C51.1113 30.2396 51.0576 30.0878 51.0616 29.9313C51.0589 29.8544 51.0708 29.7776 51.0965 29.7055C51.1222 29.6335 51.1612 29.5676 51.2113 29.5117C51.3124 29.4074 51.448 29.349 51.5892 29.349C51.7303 29.349 51.8659 29.4074 51.967 29.5117C52.0171 29.5676 52.0561 29.6335 52.0818 29.7055C52.1075 29.7776 52.1194 29.8544 52.1167 29.9313C52.1207 30.0878 52.067 30.2396 51.967 30.3547C51.9181 30.4087 51.8594 30.4516 51.7945 30.481C51.7296 30.5103 51.6597 30.5254 51.5892 30.5254C51.5186 30.5254 51.4487 30.5103 51.3838 30.481C51.3189 30.4516 51.2602 30.4087 51.2113 30.3547Z" fill="#444444"/>
<path d="M56.2769 36.5462C56.334 36.7587 56.334 36.9839 56.2769 37.1964C56.2621 37.2313 56.2372 37.2604 56.2058 37.2794C56.1744 37.2984 56.1382 37.3064 56.1022 37.3022H54.4482C54.4122 37.307 54.3757 37.2993 54.3442 37.2802C54.3127 37.2611 54.2879 37.2317 54.2735 37.1964C54.2117 36.9846 54.2117 36.758 54.2735 36.5462C54.2879 36.5109 54.3127 36.4815 54.3442 36.4624C54.3757 36.4433 54.4122 36.4356 54.4482 36.4403H56.1201C56.153 36.4401 56.1854 36.4499 56.2132 36.4687C56.2411 36.4875 56.2632 36.5144 56.2769 36.5462Z" fill="#444444"/>
<path d="M57.9487 36.5463C58.0058 36.7588 58.0058 36.984 57.9487 37.1965C57.9332 37.2318 57.9077 37.2609 57.8757 37.2799C57.8437 37.2989 57.8069 37.3068 57.7705 37.3023H56.1021C56.0657 37.3074 56.0286 37.2998 55.9965 37.2807C55.9644 37.2617 55.9389 37.2321 55.9239 37.1965C55.8668 36.984 55.8668 36.7588 55.9239 36.5463C55.9389 36.5107 55.9644 36.4812 55.9965 36.4621C56.0286 36.443 56.0657 36.4354 56.1021 36.4405H57.7705C57.8069 36.4361 57.8437 36.4439 57.8757 36.4629C57.9077 36.4819 57.9332 36.5111 57.9487 36.5463Z" fill="#444444"/>
<path d="M59.617 36.5462C59.6788 36.758 59.6788 36.9846 59.617 37.1964C59.6026 37.2317 59.5778 37.2611 59.5463 37.2802C59.5148 37.2993 59.4783 37.307 59.4423 37.3022H57.7705C57.7345 37.3064 57.6983 37.2984 57.6669 37.2794C57.6355 37.2604 57.6106 37.2313 57.5958 37.1964C57.5387 36.9839 57.5387 36.7587 57.5958 36.5462C57.6106 36.5112 57.6355 36.4822 57.6669 36.4632C57.6983 36.4442 57.7345 36.4362 57.7705 36.4403H59.4388C59.4753 36.4347 59.5126 36.442 59.5449 36.4611C59.5771 36.4803 59.6025 36.5102 59.617 36.5462Z" fill="#444444"/>
<path d="M61.2889 36.5463C61.346 36.7588 61.346 36.984 61.2889 37.1965C61.2741 37.2314 61.2492 37.2605 61.2178 37.2795C61.1864 37.2985 61.1502 37.3065 61.1142 37.3023H59.4388C59.4028 37.3071 59.3663 37.2994 59.3348 37.2803C59.3033 37.2612 59.2785 37.2318 59.2641 37.1965C59.2023 36.9847 59.2023 36.7581 59.2641 36.5463C59.2785 36.511 59.3033 36.4816 59.3348 36.4625C59.3663 36.4434 59.4028 36.4357 59.4388 36.4405H61.1107C61.1472 36.4354 61.1842 36.443 61.2163 36.4621C61.2484 36.4812 61.2739 36.5107 61.2889 36.5463Z" fill="#444444"/>
<path d="M65.2458 36.5465C65.3029 36.759 65.3029 36.9841 65.2458 37.1967C65.231 37.2316 65.2061 37.2607 65.1747 37.2797C65.1433 37.2987 65.107 37.3067 65.0711 37.3025H64.6647C64.1044 37.3285 63.5527 37.1482 63.1034 36.7922C62.7802 37.1324 62.2526 37.3025 61.5206 37.3025H61.1142C61.0777 37.3075 61.0407 37.2999 61.0086 37.2809C60.9765 37.2618 60.951 37.2323 60.936 37.1967C60.8789 36.9841 60.8789 36.759 60.936 36.5465C60.951 36.5108 60.9765 36.4813 61.0086 36.4622C61.0407 36.4432 61.0777 36.4356 61.1142 36.4406H61.4707C61.82 36.479 62.1703 36.3794 62.4546 36.1609C62.5604 36.0302 62.64 35.8779 62.6884 35.7135C62.7368 35.5491 62.7531 35.3759 62.7362 35.2045V31.8364H63.5917V35.2159C63.599 35.5235 63.5629 35.8305 63.4848 36.1269C63.7681 36.3445 64.112 36.455 64.4615 36.4406H65.0783C65.113 36.4381 65.1477 36.4468 65.1776 36.4658C65.2076 36.4847 65.2314 36.5128 65.2458 36.5465ZM62.6899 39.3135C62.6365 39.2534 62.5949 39.1827 62.5674 39.1056C62.5399 39.0284 62.527 38.9462 62.5294 38.8637C62.5269 38.7823 62.5398 38.7013 62.5674 38.6253C62.5949 38.5493 62.6366 38.48 62.6899 38.4214C62.7971 38.3104 62.941 38.2482 63.0909 38.2482C63.2408 38.2482 63.3847 38.3104 63.4919 38.4214C63.5452 38.48 63.5868 38.5493 63.6144 38.6253C63.642 38.7013 63.6549 38.7823 63.6523 38.8637C63.6548 38.9462 63.6419 39.0284 63.6144 39.1056C63.5869 39.1827 63.5452 39.2534 63.4919 39.3135C63.44 39.3708 63.3778 39.4164 63.3088 39.4475C63.2399 39.4786 63.1658 39.4947 63.0909 39.4947C63.016 39.4947 62.9418 39.4786 62.8729 39.4475C62.804 39.4164 62.7417 39.3708 62.6899 39.3135Z" fill="#444444"/>
<path d="M66.9248 36.5465C66.9819 36.759 66.9819 36.9842 66.9248 37.1967C66.9093 37.2319 66.8838 37.2611 66.8518 37.2801C66.8198 37.2991 66.783 37.3069 66.7466 37.3025H65.0711C65.0347 37.3069 64.9979 37.2991 64.9659 37.2801C64.9339 37.2611 64.9084 37.2319 64.8929 37.1967C64.8358 36.9842 64.8358 36.759 64.8929 36.5465C64.9084 36.5112 64.9339 36.482 64.9659 36.463C64.9979 36.4441 65.0347 36.4362 65.0711 36.4406H66.7394C66.777 36.4345 66.8154 36.4415 66.8489 36.4606C66.8823 36.4797 66.909 36.5099 66.9248 36.5465Z" fill="#444444"/>
<path d="M68.586 36.5462C68.6478 36.758 68.6478 36.9846 68.586 37.1964C68.5716 37.2317 68.5468 37.2611 68.5153 37.2802C68.4838 37.2993 68.4473 37.307 68.4113 37.3022H66.7394C66.7035 37.3064 66.6673 37.2984 66.6359 37.2794C66.6045 37.2604 66.5796 37.2313 66.5648 37.1964C66.5077 36.9839 66.5077 36.7587 66.5648 36.5462C66.5796 36.5112 66.6045 36.4822 66.6359 36.4632C66.6673 36.4442 66.7035 36.4362 66.7394 36.4403H68.4113C68.4473 36.4356 68.4838 36.4433 68.5153 36.4624C68.5468 36.4815 68.5716 36.5109 68.586 36.5462Z" fill="#444444"/>
<path d="M70.2579 36.5462C70.3149 36.7587 70.3149 36.9839 70.2579 37.1964C70.243 37.2313 70.2181 37.2604 70.1868 37.2794C70.1554 37.2984 70.1191 37.3064 70.0832 37.3022H68.4113C68.3753 37.307 68.3388 37.2993 68.3073 37.2802C68.2758 37.2611 68.251 37.2317 68.2366 37.1964C68.1749 36.9846 68.1749 36.758 68.2366 36.5462C68.251 36.5109 68.2758 36.4815 68.3073 36.4624C68.3388 36.4433 68.3753 36.4356 68.4113 36.4403H70.0832C70.1191 36.4362 70.1554 36.4442 70.1868 36.4632C70.2181 36.4822 70.243 36.5112 70.2579 36.5462Z" fill="#444444"/>
<path d="M71.9155 36.5463C71.9726 36.7588 71.9726 36.984 71.9155 37.1965C71.9 37.2318 71.8745 37.2609 71.8425 37.2799C71.8105 37.2989 71.7737 37.3068 71.7372 37.3023H70.0689C70.0324 37.3074 69.9954 37.2998 69.9633 37.2807C69.9312 37.2617 69.9057 37.2321 69.8907 37.1965C69.8336 36.984 69.8336 36.7588 69.8907 36.5463C69.9057 36.5107 69.9312 36.4812 69.9633 36.4621C69.9954 36.443 70.0324 36.4354 70.0689 36.4405H71.7372C71.7737 36.4361 71.8105 36.4439 71.8425 36.4629C71.8745 36.4819 71.9 36.5111 71.9155 36.5463Z" fill="#444444"/>
<path d="M73.5981 36.5462C73.6599 36.758 73.6599 36.9846 73.5981 37.1964C73.5837 37.2317 73.5589 37.2611 73.5274 37.2802C73.4959 37.2993 73.4594 37.307 73.4234 37.3022H71.7515C71.7156 37.3064 71.6794 37.2984 71.648 37.2794C71.6166 37.2604 71.5917 37.2313 71.5769 37.1964C71.5198 36.9839 71.5198 36.7587 71.5769 36.5462C71.5917 36.5112 71.6166 36.4822 71.648 36.4632C71.6794 36.4442 71.7156 36.4362 71.7515 36.4403H73.4234C73.4594 36.4356 73.4959 36.4433 73.5274 36.4624C73.5589 36.4815 73.5837 36.5109 73.5981 36.5462Z" fill="#444444"/>
<path d="M75.27 36.5462C75.327 36.7587 75.327 36.9839 75.27 37.1964C75.2551 37.2313 75.2302 37.2604 75.1988 37.2794C75.1675 37.2984 75.1312 37.3064 75.0953 37.3022H73.4234C73.3874 37.307 73.3509 37.2993 73.3194 37.2802C73.2879 37.2611 73.2631 37.2317 73.2487 37.1964C73.1869 36.9846 73.1869 36.758 73.2487 36.5462C73.2631 36.5109 73.2879 36.4815 73.3194 36.4624C73.3509 36.4433 73.3874 36.4356 73.4234 36.4403H75.0953C75.1312 36.4362 75.1675 36.4442 75.1988 36.4632C75.2302 36.4822 75.2551 36.5112 75.27 36.5462Z" fill="#444444"/>
<path d="M76.9419 36.5465C76.9989 36.759 76.9989 36.9842 76.9419 37.1967C76.9264 37.2319 76.9008 37.2611 76.8689 37.2801C76.8369 37.2991 76.8 37.307 76.7636 37.3025H75.0953C75.0589 37.307 75.0221 37.2991 74.9901 37.2801C74.9581 37.2611 74.9325 37.2319 74.9171 37.1967C74.86 36.9842 74.86 36.759 74.9171 36.5465C74.9325 36.5113 74.9581 36.4821 74.9901 36.4631C75.0221 36.4441 75.0589 36.4362 75.0953 36.4407H76.7636C76.8 36.4362 76.8369 36.4441 76.8689 36.4631C76.9008 36.4821 76.9264 36.5113 76.9419 36.5465Z" fill="#444444"/>
<path d="M78.6102 36.5462C78.6719 36.758 78.6719 36.9846 78.6102 37.1964C78.5958 37.2317 78.571 37.2611 78.5395 37.2802C78.508 37.2993 78.4715 37.307 78.4355 37.3022H76.7636C76.7277 37.3064 76.6914 37.2984 76.6601 37.2794C76.6287 37.2604 76.6038 37.2313 76.5889 37.1964C76.5319 36.9839 76.5319 36.7587 76.5889 36.5462C76.6038 36.5112 76.6287 36.4822 76.6601 36.4632C76.6914 36.4442 76.7277 36.4362 76.7636 36.4403H78.4355C78.4715 36.4356 78.508 36.4433 78.5395 36.4624C78.571 36.4815 78.5958 36.5109 78.6102 36.5462Z" fill="#444444"/>
<path d="M80.5993 31.8364V37.3025H78.4355C78.3995 37.3073 78.363 37.2996 78.3315 37.2805C78.3 37.2614 78.2752 37.232 78.2608 37.1967C78.199 36.9849 78.199 36.7582 78.2608 36.5465C78.2752 36.5112 78.3 36.4817 78.3315 36.4627C78.363 36.4436 78.3995 36.4358 78.4355 36.4406H79.7331V31.8364H80.5993ZM79.1092 39.2266C79.0583 39.1705 79.0184 39.1041 78.9921 39.0314C78.9658 38.9587 78.9535 38.8811 78.9559 38.8032C78.9534 38.7265 78.9657 38.65 78.9921 38.5785C79.0184 38.507 79.0583 38.442 79.1092 38.3874C79.1577 38.3331 79.2164 38.2903 79.2815 38.2616C79.3466 38.233 79.4166 38.2191 79.4871 38.2211C79.5575 38.2196 79.6274 38.2336 79.6925 38.2623C79.7575 38.2909 79.8162 38.3335 79.865 38.3874C79.9147 38.4427 79.9536 38.5079 79.9793 38.5793C80.005 38.6507 80.0171 38.7268 80.0147 38.8032C80.0194 38.9598 79.9656 39.1119 79.865 39.2266C79.817 39.2817 79.7584 39.3254 79.6933 39.3547C79.6281 39.3841 79.5579 39.3984 79.4871 39.3967C79.4163 39.3989 79.3458 39.3848 79.2806 39.3554C79.2154 39.3261 79.1569 39.2821 79.1092 39.2266ZM80.5031 39.2266C80.4024 39.1119 80.3486 38.9598 80.3533 38.8032C80.351 38.7268 80.363 38.6507 80.3887 38.5793C80.4144 38.5079 80.4533 38.4427 80.5031 38.3874C80.5518 38.3335 80.6105 38.2909 80.6756 38.2623C80.7406 38.2336 80.8105 38.2196 80.8809 38.2211C80.9514 38.2191 81.0214 38.233 81.0865 38.2616C81.1516 38.2903 81.2103 38.3331 81.2588 38.3874C81.3097 38.442 81.3496 38.507 81.3759 38.5785C81.4023 38.65 81.4146 38.7265 81.4121 38.8032C81.4145 38.8811 81.4022 38.9587 81.3759 39.0314C81.3496 39.1041 81.3097 39.1705 81.2588 39.2266C81.2111 39.2821 81.1526 39.3261 81.0874 39.3554C81.0222 39.3848 80.9517 39.3989 80.8809 39.3967C80.8102 39.3984 80.7399 39.3841 80.6747 39.3547C80.6096 39.3254 80.5511 39.2817 80.5031 39.2266Z" fill="#444444"/>
<path d="M85.3261 36.5465C85.3879 36.7582 85.3879 36.9849 85.3261 37.1967C85.3117 37.232 85.2869 37.2614 85.2554 37.2805C85.2239 37.2996 85.1874 37.3073 85.1514 37.3025H84.0357V37.4424C84.0752 38.0999 83.8719 38.7479 83.4689 39.2493C83.2631 39.4689 83.0163 39.6405 82.7444 39.7531C82.4724 39.8657 82.1813 39.9168 81.8897 39.9032L81.7471 39.03C81.9387 39.0559 82.1333 39.0379 82.3177 38.9772C82.5022 38.9166 82.6723 38.8147 82.8165 38.6785C83.08 38.3299 83.2076 37.8876 83.173 37.4424V31.8364H84.0357V36.4406H85.1443C85.1814 36.4341 85.2195 36.4409 85.2525 36.4601C85.2855 36.4793 85.3114 36.5097 85.3261 36.5465Z" fill="#444444"/>
<path d="M86.998 36.5462C87.055 36.7587 87.055 36.9839 86.998 37.1964C86.9831 37.2313 86.9582 37.2604 86.9269 37.2794C86.8955 37.2984 86.8592 37.3064 86.8233 37.3022H85.1514C85.1154 37.307 85.0789 37.2993 85.0474 37.2802C85.0159 37.2611 84.9911 37.2317 84.9768 37.1964C84.915 36.9846 84.915 36.758 84.9768 36.5462C84.9911 36.5109 85.0159 36.4815 85.0474 36.4624C85.0789 36.4433 85.1154 36.4356 85.1514 36.4403H86.8233C86.8592 36.4362 86.8955 36.4442 86.9269 36.4632C86.9582 36.4822 86.9831 36.5112 86.998 36.5462Z" fill="#444444"/>
<path d="M88.6699 36.5463C88.7269 36.7588 88.7269 36.984 88.6699 37.1965C88.6544 37.2318 88.6289 37.2609 88.5969 37.2799C88.5649 37.2989 88.5281 37.3068 88.4916 37.3023H86.8233C86.7868 37.3074 86.7498 37.2998 86.7177 37.2807C86.6856 37.2617 86.6601 37.2321 86.6451 37.1965C86.588 36.984 86.588 36.7588 86.6451 36.5463C86.6601 36.5107 86.6856 36.4812 86.7177 36.4621C86.7498 36.443 86.7868 36.4354 86.8233 36.4405H88.4916C88.5281 36.4361 88.5649 36.4439 88.5969 36.4629C88.6289 36.4819 88.6544 36.5111 88.6699 36.5463Z" fill="#444444"/>
<path d="M96.0668 36.5465C96.1239 36.759 96.1239 36.9841 96.0668 37.1966C96.0518 37.2323 96.0263 37.2618 95.9942 37.2809C95.9621 37.2999 95.925 37.3075 95.8885 37.3025H88.4916C88.4557 37.3067 88.4195 37.2987 88.3881 37.2797C88.3567 37.2606 88.3318 37.2316 88.317 37.1966C88.2599 36.9841 88.2599 36.759 88.317 36.5465C88.3318 36.5115 88.3567 36.4825 88.3881 36.4634C88.4195 36.4444 88.4557 36.4364 88.4916 36.4406H90.1849C89.7029 35.9046 89.4392 35.189 89.4506 34.4485C89.4434 33.8977 89.5844 33.3562 89.857 32.8873C90.1255 32.4197 90.5086 32.0382 90.9656 31.7835C91.4382 31.5119 91.968 31.3714 92.5056 31.3752C93.2491 31.399 93.9789 31.5938 94.6444 31.946V36.4406H95.885C95.922 36.4347 95.9599 36.4419 95.9927 36.461C96.0256 36.4801 96.0516 36.5101 96.0668 36.5465ZM90.6982 35.7073C90.9621 36.0672 91.3305 36.3249 91.7463 36.4406H93.7889V32.5093C93.3788 32.3426 92.9447 32.2518 92.5056 32.2409C92.1107 32.2358 91.7209 32.3359 91.372 32.532C91.0461 32.7141 90.7745 32.989 90.5877 33.3258C90.3956 33.6684 90.298 34.0613 90.3061 34.4598C90.3008 34.9106 90.4389 35.3501 90.6982 35.7073ZM91.4397 30.2412C91.3391 30.1266 91.2853 29.9744 91.29 29.8178C91.2877 29.7409 91.2998 29.6642 91.3255 29.5922C91.3512 29.5202 91.39 29.4543 91.4397 29.3982C91.4886 29.3448 91.5475 29.3028 91.6125 29.2748C91.6776 29.2468 91.7474 29.2335 91.8176 29.2357C91.8878 29.233 91.9578 29.2462 92.0229 29.2742C92.088 29.3022 92.1468 29.3445 92.1954 29.3982C92.2463 29.4536 92.2861 29.5194 92.3124 29.5915C92.3388 29.6636 92.3511 29.7405 92.3487 29.8178C92.3512 29.8957 92.3389 29.9733 92.3126 30.046C92.2862 30.1187 92.2464 30.1851 92.1954 30.2412C92.1477 30.2967 92.0893 30.3407 92.024 30.37C91.9588 30.3994 91.8884 30.4135 91.8176 30.4113C91.7468 30.413 91.6765 30.3987 91.6114 30.3694C91.5462 30.34 91.4877 30.2963 91.4397 30.2412ZM92.8371 30.2412C92.7365 30.1266 92.6826 29.9744 92.6874 29.8178C92.6851 29.7409 92.6972 29.6642 92.7229 29.5922C92.7486 29.5202 92.7874 29.4543 92.8371 29.3982C92.9383 29.2939 93.0738 29.2355 93.215 29.2355C93.3561 29.2355 93.4917 29.2939 93.5928 29.3982C93.6426 29.4543 93.6814 29.5202 93.7071 29.5922C93.7327 29.6642 93.7448 29.7409 93.7426 29.8178C93.7473 29.9744 93.6935 30.1266 93.5928 30.2412C93.5439 30.2952 93.4853 30.3381 93.4203 30.3674C93.3554 30.3968 93.2855 30.4119 93.215 30.4119C93.1444 30.4119 93.0745 30.3968 93.0096 30.3674C92.9447 30.3381 92.886 30.2952 92.8371 30.2412Z" fill="#444444"/>
<path d="M97.671 28.7593V37.3024H95.8886C95.8527 37.3066 95.8164 37.2986 95.7851 37.2796C95.7537 37.2605 95.7288 37.2315 95.7139 37.1965C95.6569 36.984 95.6569 36.7589 95.7139 36.5463C95.7288 36.5114 95.7537 36.4823 95.7851 36.4633C95.8164 36.4443 95.8527 36.4363 95.8886 36.4405H96.8119V28.7593H97.671Z" fill="#444444"/>
<path d="M99.8597 28.7593H100.715V37.3024H99.8597V28.7593Z" fill="#444444"/>
<path d="M108.565 36.9355C108.149 36.6981 107.802 36.3437 107.563 35.9111C107.323 35.4815 107.199 34.9894 107.207 34.4898C107.208 33.9443 107.347 33.4091 107.61 32.9399C107.865 32.4644 108.224 32.0611 108.658 31.7643C109.052 31.4741 109.52 31.3186 110 31.3186C110.48 31.3186 110.948 31.4741 111.342 31.7643C111.775 32.0611 112.135 32.4644 112.39 32.9399C112.652 33.4091 112.792 33.9443 112.793 34.4898C112.8 34.9894 112.677 35.4815 112.436 35.9111C112.195 36.3381 111.849 36.6871 111.435 36.9204C110.993 37.1609 110.505 37.2863 110.009 37.2863C109.513 37.2863 109.024 37.1609 108.583 36.9204L108.565 36.9355ZM110.982 36.1795C111.268 36.0185 111.507 35.7781 111.673 35.484C111.844 35.1859 111.932 34.8425 111.926 34.4936C111.925 34.1052 111.829 33.7239 111.648 33.386C111.476 33.0439 111.232 32.7479 110.935 32.5204C110.668 32.3103 110.345 32.1941 110.012 32.1877C109.683 32.1941 109.363 32.3105 109.1 32.5204C108.795 32.7454 108.542 33.0415 108.362 33.386C108.179 33.7232 108.08 34.1046 108.077 34.4936C108.068 34.8378 108.149 35.1778 108.31 35.477C108.471 35.7761 108.706 36.0229 108.989 36.1909C109.296 36.355 109.635 36.4405 109.978 36.4405C110.322 36.4405 110.661 36.355 110.968 36.1909L110.982 36.1795ZM108.929 30.3354C108.829 30.2204 108.775 30.0685 108.779 29.9121C108.776 29.8351 108.788 29.7583 108.814 29.6862C108.839 29.6142 108.878 29.5483 108.929 29.4925C109.03 29.3881 109.165 29.3297 109.306 29.3297C109.448 29.3297 109.583 29.3881 109.684 29.4925C109.734 29.5483 109.773 29.6142 109.799 29.6862C109.825 29.7583 109.837 29.8351 109.834 29.9121C109.838 30.0685 109.784 30.2204 109.684 30.3354C109.635 30.3894 109.577 30.4323 109.512 30.4617C109.447 30.491 109.377 30.5061 109.306 30.5061C109.236 30.5061 109.166 30.491 109.101 30.4617C109.036 30.4323 108.977 30.3894 108.929 30.3354ZM110.326 30.3354C110.225 30.2207 110.17 30.0689 110.173 29.9121C110.171 29.8348 110.183 29.758 110.209 29.6859C110.236 29.6139 110.275 29.5481 110.326 29.4925C110.375 29.4387 110.433 29.3964 110.498 29.3684C110.564 29.3404 110.634 29.3273 110.704 29.3299C110.774 29.3278 110.844 29.3411 110.909 29.3691C110.974 29.397 111.033 29.4391 111.082 29.4925C111.132 29.5483 111.171 29.6142 111.196 29.6862C111.222 29.7583 111.234 29.8351 111.231 29.9121C111.235 30.0685 111.182 30.2204 111.082 30.3354C111.034 30.3906 110.975 30.4343 110.91 30.4636C110.845 30.4929 110.775 30.5072 110.704 30.5055C110.634 30.5092 110.564 30.4969 110.499 30.4695C110.433 30.4421 110.375 30.4003 110.326 30.3468V30.3354Z" fill="#444444"/>
<path d="M117.869 31.8365C118.49 32.3889 118.979 33.0898 119.295 33.8815C119.635 34.7469 119.805 35.677 119.794 36.6146C118.685 37.0941 117.495 37.3282 116.297 37.3025C115.596 37.3075 114.896 37.2302 114.211 37.072V36.1836C114.899 36.359 115.604 36.4453 116.311 36.4407C117.193 36.4504 118.07 36.3165 118.913 36.0438C118.853 34.9845 118.501 33.9672 117.901 33.1179C117.314 32.3201 116.474 31.7738 115.538 31.5794L115.723 30.7402C116.512 30.9137 117.249 31.2902 117.869 31.8365Z" fill="#444444"/>
<path d="M123.854 36.5463C123.911 36.7589 123.911 36.984 123.854 37.1965C123.839 37.2322 123.814 37.2617 123.782 37.2808C123.75 37.2998 123.712 37.3074 123.676 37.3024H121.644V28.7593H122.503V36.4405H123.676C123.712 36.4355 123.75 36.4431 123.782 36.4621C123.814 36.4812 123.839 36.5107 123.854 36.5463Z" fill="#444444"/>
<path d="M125.526 36.5463C125.583 36.7588 125.583 36.984 125.526 37.1965C125.511 37.2318 125.485 37.2609 125.453 37.2799C125.421 37.2989 125.384 37.3068 125.348 37.3023H123.68C123.643 37.3074 123.606 37.2998 123.574 37.2807C123.542 37.2617 123.516 37.2321 123.501 37.1965C123.444 36.984 123.444 36.7588 123.501 36.5463C123.516 36.5107 123.542 36.4812 123.574 36.4621C123.606 36.443 123.643 36.4354 123.68 36.4405H125.348C125.384 36.4361 125.421 36.4439 125.453 36.4629C125.485 36.4819 125.511 36.5111 125.526 36.5463Z" fill="#444444"/>
<path d="M127.194 36.5462C127.256 36.758 127.256 36.9846 127.194 37.1964C127.18 37.2317 127.155 37.2611 127.124 37.2802C127.092 37.2993 127.056 37.307 127.02 37.3022H125.348C125.312 37.307 125.275 37.2993 125.244 37.2802C125.212 37.2611 125.188 37.2317 125.173 37.1964C125.111 36.9846 125.111 36.758 125.173 36.5462C125.188 36.5109 125.212 36.4815 125.244 36.4624C125.275 36.4433 125.312 36.4356 125.348 36.4403H127.02C127.056 36.4356 127.092 36.4433 127.124 36.4624C127.155 36.4815 127.18 36.5109 127.194 36.5462Z" fill="#444444"/>
<path d="M128.866 36.5462C128.923 36.7587 128.923 36.9839 128.866 37.1964C128.851 37.2313 128.827 37.2604 128.795 37.2794C128.764 37.2984 128.728 37.3064 128.692 37.3022H127.02C126.984 37.307 126.947 37.2993 126.916 37.2802C126.884 37.2611 126.859 37.2317 126.845 37.1964C126.783 36.9846 126.783 36.758 126.845 36.5462C126.859 36.5109 126.884 36.4815 126.916 36.4624C126.947 36.4433 126.984 36.4356 127.02 36.4403H128.692C128.728 36.4362 128.764 36.4442 128.795 36.4632C128.827 36.4822 128.851 36.5112 128.866 36.5462Z" fill="#444444"/>
<path d="M130.538 36.5463C130.595 36.7588 130.595 36.984 130.538 37.1965C130.523 37.2318 130.497 37.2609 130.465 37.2799C130.433 37.2989 130.396 37.3068 130.36 37.3023H128.692C128.655 37.3074 128.618 37.2998 128.586 37.2807C128.554 37.2617 128.528 37.2321 128.513 37.1965C128.456 36.984 128.456 36.7588 128.513 36.5463C128.528 36.5107 128.554 36.4812 128.586 36.4621C128.618 36.443 128.655 36.4354 128.692 36.4405H130.378C130.411 36.44 130.444 36.4496 130.473 36.4684C130.501 36.4872 130.524 36.5142 130.538 36.5463Z" fill="#444444"/>
<path d="M132.206 36.5464C132.268 36.7582 132.268 36.9848 132.206 37.1966C132.192 37.2319 132.167 37.2613 132.136 37.2804C132.104 37.2995 132.068 37.3072 132.032 37.3024H130.378C130.342 37.3066 130.306 37.2986 130.274 37.2796C130.243 37.2606 130.218 37.2315 130.203 37.1966C130.146 36.9841 130.146 36.7589 130.203 36.5464C130.218 36.5114 130.243 36.4824 130.274 36.4634C130.306 36.4443 130.342 36.4364 130.378 36.4405H132.05C132.083 36.4398 132.115 36.4494 132.143 36.4683C132.171 36.4871 132.193 36.5143 132.206 36.5464Z" fill="#444444"/>
<path d="M133.878 36.5462C133.935 36.7587 133.935 36.9839 133.878 37.1964C133.864 37.2313 133.839 37.2604 133.807 37.2794C133.776 37.2984 133.74 37.3064 133.704 37.3022H132.032C131.996 37.307 131.959 37.2993 131.928 37.2802C131.896 37.2611 131.872 37.2317 131.857 37.1964C131.795 36.9846 131.795 36.758 131.857 36.5462C131.872 36.5109 131.896 36.4815 131.928 36.4624C131.959 36.4433 131.996 36.4356 132.032 36.4403H133.704C133.74 36.4362 133.776 36.4442 133.807 36.4632C133.839 36.4822 133.864 36.5112 133.878 36.5462Z" fill="#444444"/>
<path d="M135.55 36.5465C135.607 36.759 135.607 36.9841 135.55 37.1966C135.535 37.2319 135.509 37.2611 135.477 37.2801C135.445 37.2991 135.408 37.3069 135.372 37.3025H133.704C133.667 37.3075 133.63 37.2999 133.598 37.2809C133.566 37.2618 133.54 37.2323 133.525 37.1966C133.468 36.9841 133.468 36.759 133.525 36.5465C133.54 36.5108 133.566 36.4813 133.598 36.4622C133.63 36.4432 133.667 36.4356 133.704 36.4406H135.368C135.405 36.4353 135.443 36.4428 135.476 36.4618C135.508 36.4809 135.535 36.5105 135.55 36.5465Z" fill="#444444"/>
<path d="M137.218 36.5462C137.28 36.758 137.28 36.9846 137.218 37.1964C137.204 37.2317 137.179 37.2611 137.148 37.2802C137.116 37.2993 137.08 37.307 137.044 37.3022H135.368C135.332 37.3064 135.296 37.2984 135.265 37.2794C135.233 37.2604 135.209 37.2313 135.194 37.1964C135.132 36.9846 135.132 36.758 135.194 36.5462C135.209 36.5112 135.233 36.4822 135.265 36.4632C135.296 36.4442 135.332 36.4362 135.368 36.4403H137.04C137.077 36.4347 137.114 36.442 137.146 36.4611C137.179 36.4803 137.204 36.5102 137.218 36.5462Z" fill="#444444"/>
<path d="M138.89 36.5462C138.948 36.7587 138.948 36.9839 138.89 37.1964C138.876 37.2313 138.851 37.2604 138.819 37.2794C138.788 37.2984 138.752 37.3064 138.716 37.3022H137.044C137.008 37.307 136.971 37.2993 136.94 37.2802C136.908 37.2611 136.884 37.2317 136.869 37.1964C136.807 36.9846 136.807 36.758 136.869 36.5462C136.884 36.5109 136.908 36.4815 136.94 36.4624C136.971 36.4433 137.008 36.4356 137.044 36.4403H138.716C138.752 36.4362 138.788 36.4442 138.819 36.4632C138.851 36.4822 138.876 36.5112 138.89 36.5462Z" fill="#444444"/>
<path d="M140.562 36.5465C140.619 36.759 140.619 36.9842 140.562 37.1967C140.547 37.2319 140.521 37.2611 140.489 37.2801C140.457 37.2991 140.42 37.307 140.384 37.3025H138.716C138.679 37.307 138.642 37.2991 138.61 37.2801C138.578 37.2611 138.553 37.2319 138.537 37.1967C138.48 36.9842 138.48 36.759 138.537 36.5465C138.553 36.5113 138.578 36.4821 138.61 36.4631C138.642 36.4441 138.679 36.4362 138.716 36.4407H140.384C140.42 36.4362 140.457 36.4441 140.489 36.4631C140.521 36.4821 140.547 36.5113 140.562 36.5465Z" fill="#444444"/>
<path d="M142.231 36.5462C142.292 36.758 142.292 36.9846 142.231 37.1964C142.216 37.2317 142.191 37.2611 142.16 37.2802C142.128 37.2993 142.092 37.307 142.056 37.3022H140.384C140.348 37.3064 140.312 37.2984 140.28 37.2794C140.249 37.2604 140.224 37.2313 140.209 37.1964C140.152 36.9839 140.152 36.7587 140.209 36.5462C140.224 36.5112 140.249 36.4822 140.28 36.4632C140.312 36.4442 140.348 36.4362 140.384 36.4403H142.056C142.092 36.4356 142.128 36.4433 142.16 36.4624C142.191 36.4815 142.216 36.5109 142.231 36.5462Z" fill="#444444"/>
<path d="M146.187 36.5465C146.249 36.7582 146.249 36.9849 146.187 37.1967C146.173 37.232 146.148 37.2614 146.117 37.2805C146.085 37.2996 146.049 37.3073 146.013 37.3025H145.606C145.046 37.3285 144.494 37.1482 144.045 36.7922C143.724 37.1324 143.197 37.3025 142.462 37.3025H142.056C142.02 37.3073 141.983 37.2996 141.952 37.2805C141.92 37.2614 141.896 37.232 141.881 37.1967C141.819 36.9849 141.819 36.7582 141.881 36.5465C141.896 36.5112 141.92 36.4817 141.952 36.4627C141.983 36.4436 142.02 36.4358 142.056 36.4406H142.412C142.761 36.4772 143.111 36.3778 143.396 36.1609C143.501 36.0294 143.579 35.877 143.627 35.7127C143.675 35.5484 143.691 35.3756 143.674 35.2045V31.8364H144.533V35.2159C144.54 35.5237 144.502 35.8308 144.423 36.1269C144.706 36.3445 145.05 36.455 145.4 36.4406H146.016C146.052 36.4367 146.087 36.4448 146.118 36.4639C146.149 36.4829 146.173 36.5118 146.187 36.5465ZM143.036 39.2266C142.936 39.1119 142.882 38.9598 142.886 38.8032C142.884 38.7268 142.896 38.6507 142.922 38.5793C142.947 38.5079 142.986 38.4427 143.036 38.3874C143.136 38.2812 143.272 38.2216 143.414 38.2216C143.556 38.2216 143.692 38.2812 143.792 38.3874C143.842 38.4427 143.881 38.5079 143.906 38.5793C143.932 38.6507 143.944 38.7268 143.942 38.8032C143.946 38.9598 143.893 39.1119 143.792 39.2266C143.743 39.2805 143.684 39.3235 143.619 39.3528C143.554 39.3821 143.485 39.3973 143.414 39.3973C143.343 39.3973 143.274 39.3821 143.209 39.3528C143.144 39.3235 143.085 39.2805 143.036 39.2266ZM144.434 39.2266C144.383 39.1705 144.343 39.1041 144.316 39.0314C144.29 38.9587 144.278 38.8811 144.28 38.8032C144.278 38.7265 144.29 38.65 144.316 38.5785C144.343 38.507 144.383 38.442 144.434 38.3874C144.482 38.3331 144.541 38.2903 144.606 38.2616C144.671 38.233 144.741 38.2191 144.811 38.2211C144.882 38.2196 144.952 38.2336 145.017 38.2623C145.082 38.2909 145.141 38.3335 145.189 38.3874C145.239 38.4427 145.278 38.5079 145.304 38.5793C145.329 38.6507 145.341 38.7268 145.339 38.8032C145.344 38.9598 145.29 39.1119 145.189 39.2266C145.141 39.2817 145.083 39.3254 145.018 39.3547C144.952 39.3841 144.882 39.3984 144.811 39.3967C144.741 39.3989 144.67 39.3848 144.605 39.3554C144.54 39.3261 144.481 39.2821 144.434 39.2266Z" fill="#444444"/>
<path d="M147.845 36.5462C147.902 36.7587 147.902 36.9839 147.845 37.1964C147.83 37.2313 147.805 37.2604 147.774 37.2794C147.743 37.2984 147.706 37.3064 147.67 37.3022H145.999C145.963 37.307 145.926 37.2993 145.895 37.2802C145.863 37.2611 145.838 37.2317 145.824 37.1964C145.762 36.9846 145.762 36.758 145.824 36.5462C145.838 36.5109 145.863 36.4815 145.895 36.4624C145.926 36.4433 145.963 36.4356 145.999 36.4403H147.67C147.706 36.4362 147.743 36.4442 147.774 36.4632C147.805 36.4822 147.83 36.5112 147.845 36.5462Z" fill="#444444"/>
<path d="M149.531 36.5465C149.588 36.759 149.588 36.9842 149.531 37.1967C149.516 37.2319 149.49 37.2611 149.458 37.2801C149.426 37.2991 149.389 37.307 149.353 37.3025H147.685C147.648 37.307 147.611 37.2991 147.579 37.2801C147.547 37.2611 147.522 37.2319 147.506 37.1967C147.449 36.9842 147.449 36.759 147.506 36.5465C147.522 36.5113 147.547 36.4821 147.579 36.4631C147.611 36.4441 147.648 36.4362 147.685 36.4407H149.353C149.389 36.4362 149.426 36.4441 149.458 36.4631C149.49 36.4821 149.516 36.5113 149.531 36.5465Z" fill="#444444"/>
<path d="M151.2 36.5462C151.261 36.758 151.261 36.9846 151.2 37.1964C151.185 37.2317 151.16 37.2611 151.129 37.2802C151.097 37.2993 151.061 37.307 151.025 37.3022H149.353C149.317 37.3064 149.281 37.2984 149.249 37.2794C149.218 37.2604 149.193 37.2313 149.178 37.1964C149.121 36.9839 149.121 36.7587 149.178 36.5462C149.193 36.5112 149.218 36.4822 149.249 36.4632C149.281 36.4442 149.317 36.4362 149.353 36.4403H151.025C151.061 36.4356 151.097 36.4433 151.129 36.4624C151.16 36.4815 151.185 36.5109 151.2 36.5462Z" fill="#444444"/>
<path d="M158.874 36.5464C158.932 36.7589 158.932 36.9841 158.874 37.1966C158.859 37.2318 158.833 37.261 158.801 37.28C158.769 37.299 158.733 37.3068 158.696 37.3024H156.839C156.066 37.3138 155.299 37.1555 154.586 36.8375C153.94 37.1172 153.252 37.2745 152.554 37.3024H151.025C150.989 37.3072 150.952 37.2995 150.921 37.2804C150.889 37.2613 150.865 37.2319 150.85 37.1966C150.788 36.9848 150.788 36.7582 150.85 36.5464C150.865 36.5111 150.889 36.4817 150.921 36.4626C150.952 36.4435 150.989 36.4358 151.025 36.4405H152.554C152.922 36.4355 153.287 36.3809 153.641 36.278C153.168 35.9158 152.766 35.4586 152.458 34.9323C152.142 34.3846 151.921 33.7817 151.806 33.1518L152.518 31.8023C153.239 31.5184 154.002 31.3737 154.771 31.3752C155.329 31.3629 155.884 31.4498 156.415 31.6322C156.836 31.768 157.216 32.0167 157.52 32.3542C157.778 32.6489 157.919 33.0371 157.916 33.4391C157.896 34.0176 157.673 34.5674 157.292 34.9814C156.832 35.5116 156.289 35.9541 155.688 36.2893C156.069 36.385 156.461 36.4319 156.853 36.4292H158.71C158.746 36.4289 158.78 36.4399 158.81 36.4608C158.839 36.4817 158.862 36.5116 158.874 36.5464ZM153.288 34.6223C153.63 35.1653 154.094 35.6086 154.64 35.9113C155.265 35.6332 155.844 35.2503 156.354 34.7773C156.552 34.6283 156.717 34.4368 156.84 34.2154C156.963 33.9939 157.04 33.7474 157.067 33.492C157.059 33.2919 156.994 33.099 156.881 32.9385C156.767 32.7781 156.611 32.6574 156.433 32.5924C155.911 32.3548 155.346 32.2438 154.779 32.2673C154.029 32.2587 153.286 32.4252 152.604 32.7549C152.7 33.4232 152.933 34.0609 153.288 34.6223Z" fill="#444444"/>
<path d="M160.479 28.7593V37.3024H158.696C158.66 37.3066 158.624 37.2986 158.593 37.2796C158.561 37.2605 158.536 37.2315 158.522 37.1965C158.464 36.984 158.464 36.7589 158.522 36.5463C158.536 36.5114 158.561 36.4823 158.593 36.4633C158.624 36.4443 158.66 36.4363 158.696 36.4405H159.609V28.7593H160.479Z" fill="#444444"/>
<path d="M162.664 28.7593H163.53V37.3024H162.671L162.664 28.7593Z" fill="#444444"/>
</svg>
